<svg width="45" height="30" viewBox="0 0 45 30" fill="none" xmlns="http://www.w3.org/2000/svg">
<g clip-path="url(#clip0_371_883)">
<path d="M0 0H45V30H0V0Z" fill="#D80027"/>
<path d="M19.8945 20.9824L19.0436 19.614L17.4735 20L18.5173 18.7631L17.6664 17.3947L19.1664 18L20.2015 16.7631L20.0875 18.3772L21.5875 18.9824L20.0173 19.3684L19.8945 20.9824ZM25.491 7.19294L24.605 8.54382L25.6226 9.7982L24.0699 9.37715L23.184 10.7368L23.0963 9.12276L21.5436 8.70171L23.0524 8.12276L22.9647 6.50873L23.9822 7.76311L25.491 7.19294ZM20.7191 2.22803L20.5436 3.83329L22.0173 4.49996L20.4384 4.83329L20.2629 6.43855L19.4559 5.03504L17.8857 5.36838L18.9647 4.16662L18.1577 2.77189L19.6313 3.42978L20.7191 2.22803ZM25.684 14.1929L24.377 15.1491L24.8857 16.6842L23.5787 15.7368L22.2717 16.7017L22.7629 15.1579L21.4559 14.2193L23.0699 14.2105L23.5612 12.6666L24.0699 14.2017L25.684 14.1929ZM10.0875 4.06136L11.605 8.75434H16.5349L12.5524 11.6403L14.0699 16.3333L10.0875 13.4386L6.09626 16.3333L7.62258 11.6403L3.63135 8.75434H8.56994L10.0875 4.06136Z" fill="#FFDA44"/>
</g>
<defs>
<clipPath id="clip0_371_883">
<rect width="45" height="30" fill="white"/>
</clipPath>
</defs>
</svg>
