<svg width="172" height="173" viewBox="0 0 172 173" fill="none" xmlns="http://www.w3.org/2000/svg">
<rect y="0.5" width="172" height="172" rx="86" fill="#DCD1BD"/>
<path d="M90.2953 42.6152C88.6142 39.4222 83.3865 39.4222 81.7054 42.6152L37.979 125.613C37.5868 126.357 37.3929 127.19 37.4159 128.032C37.4389 128.873 37.6782 129.695 38.1104 130.416C38.5427 131.137 39.1532 131.734 39.8827 132.148C40.6123 132.562 41.436 132.78 42.2739 132.78H129.727C130.565 132.781 131.389 132.565 132.119 132.151C132.848 131.738 133.459 131.141 133.891 130.42C134.323 129.699 134.562 128.877 134.584 128.035C134.606 127.194 134.411 126.361 134.017 125.617L90.2953 42.6152ZM90.8588 118.133H81.1419V108.369H90.8588V118.133ZM81.1419 98.6042V74.1932H90.8588L90.8637 98.6042H81.1419Z" fill="#2D2D2D"/>
</svg>
