<svg width="32" height="32" viewBox="0 0 32 32" fill="none" xmlns="http://www.w3.org/2000/svg">
<path d="M13.32 30.3733C12.52 30.3733 11.76 29.9733 11.24 29.2667L9.64001 27.1333C9.64001 27.1467 9.57334 27.1066 9.54667 27.1066H9.05334C4.49334 27.1066 1.66666 25.8667 1.66666 19.72V14.3867C1.66666 8.77334 5.09335 7.30668 7.97335 7.05334C8.29335 7.01334 8.66668 7 9.05334 7H17.5867C22.4133 7 24.9733 9.56001 24.9733 14.3867V19.72C24.9733 20.1067 24.96 20.48 24.9067 20.84C24.6667 23.68 23.2 27.1066 17.5867 27.1066H17.0533L15.4 29.2667C14.88 29.9733 14.12 30.3733 13.32 30.3733ZM9.05334 9C8.74668 9 8.45334 9.01333 8.17334 9.04C5.08 9.30666 3.66666 11 3.66666 14.3867V19.72C3.66666 24.2933 5.08001 25.1066 9.05334 25.1066H9.58667C10.1867 25.1066 10.8667 25.44 11.24 25.92L12.84 28.0666C13.1333 28.4667 13.5067 28.4667 13.8 28.0666L15.4 25.9333C15.7866 25.4133 16.4 25.1066 17.0533 25.1066H17.5867C20.9733 25.1066 22.6667 23.68 22.92 20.64C22.96 20.32 22.9733 20.0267 22.9733 19.72V14.3867C22.9733 10.6667 21.3067 9 17.5867 9H9.05334Z" fill="#545047"/>
<path d="M13.3203 18.9201C12.5736 18.9201 11.987 18.3201 11.987 17.5868C11.987 16.8534 12.587 16.2534 13.3203 16.2534C14.0536 16.2534 14.6536 16.8534 14.6536 17.5868C14.6536 18.3201 14.067 18.9201 13.3203 18.9201Z" fill="#545047"/>
<path d="M17.5866 18.9201C16.8399 18.9201 16.2533 18.3201 16.2533 17.5868C16.2533 16.8534 16.8533 16.2534 17.5866 16.2534C18.3199 16.2534 18.9199 16.8534 18.9199 17.5868C18.9199 18.3201 18.3199 18.9201 17.5866 18.9201Z" fill="#545047"/>
<path d="M9.0664 18.9201C8.31974 18.9201 7.73307 18.3201 7.73307 17.5868C7.73307 16.8534 8.33307 16.2534 9.0664 16.2534C9.79974 16.2534 10.3997 16.8534 10.3997 17.5868C10.3997 18.3201 9.79974 18.9201 9.0664 18.9201Z" fill="#545047"/>
<path d="M23.9202 21.7201C23.6535 21.7201 23.3868 21.6134 23.2002 21.4134C22.9868 21.2001 22.8935 20.8934 22.9335 20.6001C22.9735 20.3201 22.9868 20.0268 22.9868 19.7201V14.3868C22.9868 10.6668 21.3202 9.00008 17.6002 9.00008H9.06683C8.76016 9.00008 8.46686 9.01341 8.18686 9.04008C7.89353 9.08008 7.58684 8.9734 7.37351 8.7734C7.16017 8.56006 7.04016 8.26676 7.06683 7.97343C7.30683 5.09343 8.78683 1.66675 14.4002 1.66675H22.9335C27.7602 1.66675 30.3202 4.22676 30.3202 9.05343V14.3868C30.3202 20.0001 26.8935 21.4668 24.0135 21.7201C23.9735 21.7201 23.9468 21.7201 23.9202 21.7201ZM9.22686 7.00008H17.5868C22.4135 7.00008 24.9735 9.56009 24.9735 14.3868V19.5468C27.2402 18.9868 28.3069 17.3201 28.3069 14.3868V9.05343C28.3069 5.33343 26.6402 3.66675 22.9202 3.66675H14.3869C11.4535 3.66675 9.80019 4.73341 9.22686 7.00008Z" fill="#545047"/>
</svg>
