<svg width="32" height="32" viewBox="0 0 32 32" fill="none" xmlns="http://www.w3.org/2000/svg">
<path d="M20.6667 25.5333H8.66666C4.21333 25.5333 1.66666 22.9866 1.66666 18.5333V11.3333C1.66666 6.87992 4.21333 4.33325 8.66666 4.33325H12.2667C12.5867 4.33325 12.8933 4.49333 13.08 4.74666C13.2667 5 13.32 5.34657 13.2133 5.65324C13.0667 6.06657 13 6.51992 13 6.99992V12.2C13 13.2133 13.3067 14.0532 13.8933 14.6399C14.48 15.2266 15.32 15.5333 16.3333 15.5333C16.88 15.5333 17.3333 15.9866 17.3333 16.5333V18.1332L20.9733 15.6933C21.1333 15.5866 21.3333 15.5199 21.5333 15.5199H25C25.48 15.5199 25.9333 15.4532 26.3467 15.3066C26.6533 15.1999 26.9867 15.2532 27.2533 15.4399C27.52 15.6265 27.6667 15.9332 27.6667 16.2532V18.5199C27.6667 22.9866 25.12 25.5333 20.6667 25.5333ZM8.66666 6.33325C5.30666 6.33325 3.66666 7.97325 3.66666 11.3333V18.5333C3.66666 21.8933 5.30666 23.5333 8.66666 23.5333H20.6667C24.0267 23.5333 25.6667 21.8933 25.6667 18.5333V17.4932C25.4533 17.5199 25.2267 17.5333 25 17.5333H21.84L18.24 19.9332C17.6533 20.3065 16.92 20.3466 16.32 20.0133C15.72 19.6933 15.3467 19.0666 15.3467 18.3866V17.4532C14.2267 17.2799 13.24 16.7866 12.4933 16.0533C11.5467 15.1066 11.0133 13.7333 11.0133 12.2V6.99992C11.0133 6.77325 11.0267 6.54659 11.04 6.33325H8.66666Z" fill="#545047"/>
<path d="M17.2 20.2402C16.8933 20.2402 16.5867 20.1601 16.3067 20.0134C15.7067 19.6934 15.3333 19.0668 15.3333 18.3868V17.4534C14.2133 17.28 13.2267 16.7868 12.48 16.0535C11.5333 15.1068 11 13.7334 11 12.2001V7.00008C11 6.29342 11.1067 5.62676 11.32 5.01343C12.0667 2.92009 13.9333 1.66675 16.3333 1.66675H25C28.1333 1.66675 30.3333 3.85342 30.3333 7.00008V12.2001C30.3333 14.6001 29.0933 16.4668 27 17.2135C26.36 17.4268 25.6933 17.5334 25 17.5334H21.84L18.24 19.9333C17.92 20.1467 17.56 20.2402 17.2 20.2402ZM16.3333 3.66675C14.8 3.66675 13.6667 4.40008 13.2133 5.66675C13.08 6.06675 13 6.52008 13 7.00008V12.2001C13 13.2134 13.3067 14.0534 13.8933 14.6401C14.48 15.2267 15.32 15.5334 16.3333 15.5334C16.88 15.5334 17.3333 15.9868 17.3333 16.5334V18.1334L20.9733 15.6934C21.1333 15.5868 21.3333 15.5201 21.5333 15.5201H25C25.48 15.5201 25.9333 15.4534 26.3467 15.3067C27.6133 14.8534 28.3333 13.7201 28.3333 12.1868V6.98674C28.3333 4.9334 27.0533 3.6534 25 3.6534H16.3333V3.66675Z" fill="#545047"/>
<path d="M19.4665 30.3333H9.86654C9.31987 30.3333 8.86654 29.8799 8.86654 29.3333C8.86654 28.7866 9.31987 28.3333 9.86654 28.3333H19.4665C20.0132 28.3333 20.4665 28.7866 20.4665 29.3333C20.4665 29.8799 20.0132 30.3333 19.4665 30.3333Z" fill="#545047"/>
<path d="M14.6667 30.3334C14.12 30.3334 13.6667 29.8801 13.6667 29.3334V24.5334C13.6667 23.9868 14.12 23.5334 14.6667 23.5334C15.2133 23.5334 15.6667 23.9868 15.6667 24.5334V29.3334C15.6667 29.8801 15.2133 30.3334 14.6667 30.3334Z" fill="#545047"/>
<path d="M20.5866 10.6667C20.0266 10.6667 19.5866 10.2134 19.5866 9.66675C19.5866 9.12008 20.0399 8.66675 20.5866 8.66675C21.1333 8.66675 21.5866 9.12008 21.5866 9.66675C21.5866 10.2134 21.1333 10.6667 20.5866 10.6667Z" fill="#545047"/>
<path d="M24.3333 10.6667C23.7733 10.6667 23.3333 10.2134 23.3333 9.66675C23.3333 9.12008 23.7867 8.66675 24.3333 8.66675C24.88 8.66675 25.3333 9.12008 25.3333 9.66675C25.3333 10.2134 24.88 10.6667 24.3333 10.6667Z" fill="#545047"/>
<path d="M16.8268 10.6667C16.2668 10.6667 15.8268 10.2134 15.8268 9.66675C15.8268 9.12008 16.2802 8.66675 16.8268 8.66675C17.3735 8.66675 17.8268 9.12008 17.8268 9.66675C17.8268 10.2134 17.3868 10.6667 16.8268 10.6667Z" fill="#545047"/>
</svg>
