<svg width="32" height="32" viewBox="0 0 32 32" fill="none" xmlns="http://www.w3.org/2000/svg">
<path d="M7.38666 26.0267C6.57333 26.0267 5.81333 25.7467 5.26666 25.2267C4.57333 24.5733 4.24 23.5867 4.36 22.52L4.85333 18.2C4.94666 17.3867 5.44 16.3067 6.01333 15.72L16.96 4.13332C19.6933 1.23998 22.5467 1.15998 25.44 3.89332C28.3333 6.62665 28.4133 9.47998 25.68 12.3733L14.7333 23.96C14.1733 24.56 13.1333 25.12 12.32 25.2533L8.02666 25.9867C7.8 26 7.6 26.0267 7.38666 26.0267ZM21.24 3.87998C20.2133 3.87998 19.32 4.51998 18.4133 5.47998L7.46666 17.08C7.2 17.36 6.89333 18.0267 6.84 18.4133L6.34666 22.7333C6.29333 23.1733 6.4 23.5333 6.64 23.76C6.88 23.9867 7.24 24.0667 7.68 24L11.9733 23.2667C12.36 23.2 13 22.8533 13.2667 22.5733L24.2133 10.9867C25.8667 9.22665 26.4667 7.59998 24.0533 5.33332C22.9867 4.30665 22.0667 3.87998 21.24 3.87998Z" fill="#545047"/>
<path d="M23.12 14.6C23.0933 14.6 23.0533 14.6 23.0267 14.6C18.8667 14.1866 15.52 11.0266 14.88 6.8933C14.8 6.34663 15.1733 5.83996 15.72 5.74663C16.2667 5.66663 16.7733 6.03996 16.8667 6.58663C17.3733 9.8133 19.9867 12.2933 23.24 12.6133C23.7867 12.6666 24.1867 13.16 24.1333 13.7066C24.0667 14.2133 23.6267 14.6 23.12 14.6Z" fill="#545047"/>
<path d="M28 30.3333H4C3.45333 30.3333 3 29.8799 3 29.3333C3 28.7866 3.45333 28.3333 4 28.3333H28C28.5467 28.3333 29 28.7866 29 29.3333C29 29.8799 28.5467 30.3333 28 30.3333Z" fill="#545047"/>
</svg>
