<svg width="32" height="32" viewBox="0 0 32 32" fill="none" xmlns="http://www.w3.org/2000/svg">
<path d="M23.6533 30.3333H10.1733C9.74668 30.3333 9.37333 30.0667 9.22667 29.68C9.08 29.28 9.2 28.84 9.52 28.5733C9.84 28.3067 10.1333 27.96 10.3467 27.5867C10.7733 26.9067 10.9867 26.1333 10.9867 25.3467C10.9867 22.96 9.04001 21.0133 6.65334 21.0133C5.66668 21.0133 4.73334 21.3466 3.94668 21.9733C3.65334 22.2133 3.24 22.2533 2.89333 22.0933C2.54667 21.9333 2.33334 21.5734 2.33334 21.1867V15.36C2.33334 12.04 5.02666 9.34668 8.34666 9.34668H23.6533C26.9733 9.34668 29.6667 12.04 29.6667 15.36V17.28C29.6667 17.8267 29.2133 18.28 28.6667 18.28H25.9733C25.5067 18.28 25.08 18.4534 24.7733 18.7734L24.76 18.7867C24.3867 19.1467 24.2133 19.64 24.2533 20.1466C24.3333 21.0266 25.1733 21.7333 26.1333 21.7333H28.6667C29.2133 21.7333 29.6667 22.1867 29.6667 22.7333V24.32C29.6667 27.64 26.9733 30.3333 23.6533 30.3333ZM12.24 28.3333H23.6533C25.8667 28.3333 27.6667 26.5333 27.6667 24.32V23.7333H26.1333C24.12 23.7333 22.4133 22.24 22.2533 20.32C22.1467 19.2267 22.5467 18.1467 23.3467 17.36C24.04 16.6534 24.9733 16.2667 25.9733 16.2667H27.6667V15.3467C27.6667 13.1333 25.8667 11.3333 23.6533 11.3333H8.34666C6.13333 11.3333 4.33334 13.1333 4.33334 15.3467V19.4534C5.08 19.16 5.86667 19 6.66667 19C10.16 19 13 21.84 13 25.3333C13 26.3867 12.7333 27.4267 12.24 28.3333Z" fill="#545047"/>
<path d="M3.33334 17.5468C2.78667 17.5468 2.33334 17.0934 2.33334 16.5468V10.4535C2.33334 8.46683 3.58667 6.66675 5.44001 5.96009L16.0267 1.96009C17.12 1.54676 18.3333 1.69349 19.28 2.36015C20.24 3.02682 20.8 4.10681 20.8 5.26681V10.3335C20.8 10.8801 20.3467 11.3335 19.8 11.3335C19.2533 11.3335 18.8 10.8801 18.8 10.3335V5.26681C18.8 4.76014 18.56 4.29346 18.1333 4.00013C17.7067 3.70679 17.2 3.64012 16.72 3.82679L6.13334 7.82679C5.05334 8.24012 4.32001 9.2935 4.32001 10.4535V16.5468C4.33334 17.1068 3.88 17.5468 3.33334 17.5468Z" fill="#545047"/>
<path d="M26.1333 23.7332C24.12 23.7332 22.4133 22.2399 22.2533 20.3199C22.1466 19.2132 22.5466 18.1333 23.3466 17.3466C24.0266 16.6533 24.96 16.2666 25.96 16.2666H28.7333C30.0533 16.3066 31.0666 17.3465 31.0666 18.6265V21.3733C31.0666 22.6533 30.0533 23.6932 28.7733 23.7332H26.1333ZM28.7066 18.2666H25.9733C25.5066 18.2666 25.08 18.4399 24.7733 18.7599C24.3866 19.1333 24.2 19.6399 24.2533 20.1466C24.3333 21.0266 25.1733 21.7332 26.1333 21.7332H28.7466C28.92 21.7332 29.08 21.5733 29.08 21.3733V18.6265C29.08 18.4265 28.92 18.2799 28.7066 18.2666Z" fill="#545047"/>
<path d="M18.6667 17H9.33334C8.78667 17 8.33334 16.5467 8.33334 16C8.33334 15.4533 8.78667 15 9.33334 15H18.6667C19.2133 15 19.6667 15.4533 19.6667 16C19.6667 16.5467 19.2133 17 18.6667 17Z" fill="#545047"/>
<path d="M6.66667 31.6667C4.45334 31.6667 2.37334 30.4933 1.25334 28.5867C0.653339 27.6267 0.333336 26.4933 0.333336 25.3333C0.333336 23.3867 1.2 21.5866 2.70667 20.3866C3.82667 19.4933 5.24 19 6.66667 19C10.16 19 13 21.84 13 25.3333C13 26.4933 12.68 27.6267 12.08 28.6C11.76 29.16 11.32 29.6667 10.8133 30.0933C9.70667 31.1067 8.22667 31.6667 6.66667 31.6667ZM6.66667 21C5.68 21 4.74667 21.3333 3.96 21.96C2.93334 22.7733 2.33334 24.0133 2.33334 25.3333C2.33334 26.12 2.54667 26.8933 2.96 27.56C3.74667 28.8933 5.13334 29.6667 6.66667 29.6667C7.72 29.6667 8.73334 29.28 9.50668 28.5867C9.85334 28.2933 10.1467 27.9467 10.36 27.5733C10.7867 26.8933 11 26.12 11 25.3333C11 22.9467 9.05334 21 6.66667 21Z" fill="#545047"/>
<path d="M5.9065 27.6534C5.65316 27.6534 5.39983 27.5601 5.19983 27.3601L3.87984 26.0401C3.49318 25.6535 3.49318 25.0134 3.87984 24.6267C4.26651 24.24 4.90651 24.24 5.29317 24.6267L5.93317 25.2668L8.06651 23.2934C8.46651 22.92 9.10651 22.9468 9.47984 23.3468C9.85317 23.7468 9.82652 24.3868 9.42652 24.7601L6.58651 27.3867C6.38651 27.5601 6.1465 27.6534 5.9065 27.6534Z" fill="#545047"/>
</svg>
