<svg width="16" height="17" viewBox="0 0 16 17" fill="none" xmlns="http://www.w3.org/2000/svg">
<path d="M14.8541 0.649528C15.4609 0.649528 15.9964 1.185 15.9964 1.82757V15.5C15.9964 16.1426 15.4609 16.6423 14.8541 16.6423H1.11024C0.503368 16.6423 0.00359201 16.1426 0.00359201 15.5V1.82757C0.00359201 1.185 0.503368 0.649528 1.11024 0.649528H14.8541ZM4.82286 14.3577V6.75393H2.46677V14.3577H4.82286ZM3.64481 5.68298C4.39448 5.68298 5.00135 5.07611 5.00135 4.32645C5.00135 3.57678 4.39448 2.93422 3.64481 2.93422C2.85945 2.93422 2.25258 3.57678 2.25258 4.32645C2.25258 5.07611 2.85945 5.68298 3.64481 5.68298ZM13.7117 14.3577V10.181C13.7117 8.14616 13.2476 6.53974 10.8559 6.53974C9.71352 6.53974 8.92815 7.18231 8.60687 7.78918H8.57117V6.75393H6.32218V14.3577H8.67827V10.6093C8.67827 9.60979 8.85676 8.64594 10.1062 8.64594C11.3199 8.64594 11.3199 9.78828 11.3199 10.645V14.3577H13.7117Z" fill="#667085"/>
</svg>
