<svg width="210" height="40" viewBox="0 0 210 40" fill="none" xmlns="http://www.w3.org/2000/svg">
<path d="M8.83393 20.0548C8.83393 20.0548 8.83393 20.0389 8.83393 20.0301C8.83393 13.8799 13.8198 8.8728 19.9612 8.83393V0C8.94877 0.0371025 0 9.00884 0 20.0301C0 20.0389 0 20.046 0 20.0548H8.83393Z" fill="#0E1117"/>
<path d="M29.8163 20.0548C29.8163 20.0548 29.8163 20.0389 29.8163 20.0301C29.8163 13.8799 34.8022 8.8728 40.9435 8.83393V0C29.9294 0.0371025 20.9823 9.00884 20.9823 20.0301C20.9823 20.0389 20.9823 20.046 20.9823 20.0548H29.8163Z" fill="#0E1117"/>
<path d="M11.1272 19.9452C11.1272 19.9452 11.1272 19.9611 11.1272 19.9699C11.1272 26.1201 6.14135 31.1272 0 31.1661V40C11.0141 39.9629 19.9612 30.9912 19.9612 19.9699C19.9612 19.9611 19.9612 19.954 19.9612 19.9452H11.1272Z" fill="#0E1117"/>
<path d="M58.3201 28.3536C55.4463 28.3536 53.1526 27.7289 51.4391 26.4794C49.7433 25.2121 48.8152 23.4628 48.6545 21.2316H52.8581C53.0009 22.4811 53.5453 23.4271 54.4913 24.0697C55.4552 24.7123 56.785 25.0336 58.4807 25.0336C59.9801 25.0336 61.1135 24.7837 61.881 24.2839C62.6664 23.7663 63.0591 23.0166 63.0591 22.0349C63.0591 21.2673 62.8003 20.6515 62.2827 20.1874C61.7829 19.7234 60.9886 19.3753 59.8997 19.1432L55.5088 18.2597C53.5453 17.8491 52.0638 17.153 51.0642 16.1713C50.0825 15.1896 49.5916 13.9222 49.5916 12.3693C49.5916 10.4059 50.3324 8.86189 51.8139 7.73737C53.2954 6.595 55.3213 6.02381 57.8917 6.02381C60.4799 6.02381 62.5683 6.62177 64.1569 7.81769C65.7633 8.99577 66.6736 10.6379 66.8878 12.7442H62.6843C62.1488 10.4237 60.4709 9.26351 57.6507 9.26351C56.3834 9.26351 55.3838 9.50448 54.652 9.98642C53.938 10.4505 53.581 11.1199 53.581 11.9945C53.581 13.3689 54.5627 14.2525 56.5262 14.6452L61.0778 15.5823C63.1127 15.9928 64.612 16.7068 65.5759 17.7242C66.5576 18.7238 67.0485 20.0536 67.0485 21.7136C67.0485 23.802 66.281 25.4352 64.7459 26.6133C63.2287 27.7735 61.0867 28.3536 58.3201 28.3536Z" fill="#0E1117"/>
<path d="M71.1521 34.4582V15.9571H69.1708V11.9677H73.2673V14.5381H74.3918C74.9451 13.6099 75.6948 12.8959 76.6408 12.3961C77.5868 11.8963 78.7292 11.6464 80.0679 11.6464C81.7279 11.6464 83.1202 11.9945 84.2447 12.6906C85.3871 13.3689 86.2528 14.3328 86.8418 15.5823C87.4309 16.8317 87.7254 18.3043 87.7254 20C87.7254 21.6957 87.4309 23.1683 86.8418 24.4178C86.2707 25.6673 85.4407 26.6401 84.3518 27.3362C83.263 28.0145 81.9511 28.3536 80.416 28.3536C79.2022 28.3536 78.158 28.1216 77.2834 27.6575C76.4088 27.1934 75.7305 26.5419 75.2486 25.703H75.1415V34.4582H71.1521ZM79.345 24.8997C80.7908 24.8997 81.8797 24.4713 82.6115 23.6146C83.3612 22.7399 83.736 21.5351 83.736 20C83.736 18.465 83.3612 17.269 82.6115 16.4123C81.8797 15.5376 80.7908 15.1003 79.345 15.1003C78.0777 15.1003 77.0603 15.4662 76.2928 16.1981C75.5252 16.912 75.1415 17.8938 75.1415 19.1432V20.8568C75.1415 22.1063 75.5252 23.0969 76.2928 23.8288C77.0603 24.5427 78.0777 24.8997 79.345 24.8997Z" fill="#0E1117"/>
<path d="M95.679 28.3268C93.8048 28.3268 92.3323 27.8717 91.2613 26.9613C90.2082 26.051 89.6816 24.8462 89.6816 23.3468C89.6816 21.7761 90.2171 20.5623 91.2881 19.7055C92.3769 18.8487 93.9387 18.4203 95.9736 18.4203H100.873V17.7778C100.873 15.8143 99.7309 14.8326 97.4462 14.8326C95.5184 14.8326 94.3493 15.5287 93.9387 16.921H89.9493C90.2706 15.2074 91.0739 13.9044 92.359 13.0119C93.662 12.1016 95.3578 11.6464 97.4462 11.6464C99.8023 11.6464 101.596 12.1819 102.828 13.2529C104.059 14.306 104.675 15.85 104.675 17.8848V24.0429H106.576V28.0323H102.48V25.462H101.355C100.802 26.3723 100.052 27.0774 99.1062 27.5772C98.178 28.0769 97.0356 28.3268 95.679 28.3268ZM96.2681 25.2478C97.1427 25.2478 97.9281 25.0871 98.6242 24.7659C99.3204 24.4267 99.8648 23.9805 100.257 23.4271C100.668 22.856 100.873 22.2223 100.873 21.5262V21.1513H96.1878C94.385 21.1513 93.4836 21.8207 93.4836 23.1594C93.4836 23.8198 93.7245 24.3375 94.2065 24.7123C94.7062 25.0693 95.3935 25.2478 96.2681 25.2478Z" fill="#0E1117"/>
<path d="M110.107 28.0323V15.9571H108.125V11.9677H112.195V15.0735H113.32C113.766 14.0026 114.453 13.1904 115.381 12.6371C116.309 12.0837 117.371 11.8071 118.567 11.8071H119.906V15.2342H118.38C116.934 15.2342 115.845 15.6537 115.113 16.4926C114.399 17.3315 114.042 18.4471 114.042 19.8394V28.0323H110.107Z" fill="#0E1117"/>
<path d="M122.407 28.0323V5.54188H126.397V18.1794H126.504L133.278 11.9677H138.044L131.055 18.2865L138.606 28.0323H133.894L128.271 20.7229L126.397 22.2491V28.0323H122.407Z" fill="#0E1117"/>
<path d="M150.34 28.4072C148.144 28.4072 146.216 27.952 144.556 27.0417C142.914 26.1135 141.638 24.8105 140.728 23.1326C139.835 21.4548 139.389 19.4824 139.389 17.2155C139.389 14.9486 139.835 12.9762 140.728 11.2984C141.638 9.6205 142.914 8.32641 144.556 7.41608C146.216 6.4879 148.144 6.02381 150.34 6.02381C152.107 6.02381 153.66 6.31833 154.998 6.90737C156.355 7.4964 157.471 8.35318 158.345 9.4777C159.22 10.5844 159.782 11.9142 160.032 13.4671H155.828C155.579 12.2533 154.972 11.3073 154.008 10.629C153.062 9.95072 151.839 9.61158 150.34 9.61158C148.198 9.61158 146.511 10.2899 145.279 11.6464C144.048 12.9851 143.432 14.8415 143.432 17.2155C143.432 19.5895 144.048 21.4548 145.279 22.8113C146.511 24.15 148.198 24.8194 150.34 24.8194C151.839 24.8194 153.062 24.4892 154.008 23.8288C154.972 23.1505 155.579 22.1955 155.828 20.9639H160.032C159.782 22.5168 159.22 23.8555 158.345 24.98C157.471 26.0867 156.355 26.9346 154.998 27.5236C153.66 28.1126 152.107 28.4072 150.34 28.4072Z" fill="#0E1117"/>
<path d="M170.007 28.3536C168.275 28.3536 166.767 28.0145 165.482 27.3362C164.215 26.6401 163.224 25.6673 162.51 24.4178C161.814 23.1683 161.466 21.6957 161.466 20C161.466 18.2865 161.814 16.8049 162.51 15.5555C163.224 14.306 164.223 13.3421 165.509 12.6638C166.794 11.9856 168.293 11.6464 170.007 11.6464C171.756 11.6464 173.255 11.9856 174.505 12.6638C175.772 13.3421 176.754 14.306 177.45 15.5555C178.146 16.8049 178.494 18.2865 178.494 20C178.494 21.6957 178.146 23.1772 177.45 24.4446C176.754 25.694 175.772 26.6579 174.505 27.3362C173.237 28.0145 171.738 28.3536 170.007 28.3536ZM170.007 24.873C171.435 24.873 172.541 24.4446 173.327 23.5878C174.112 22.7132 174.505 21.5172 174.505 20C174.505 18.465 174.112 17.269 173.327 16.4123C172.541 15.5555 171.435 15.1271 170.007 15.1271C168.561 15.1271 167.436 15.5555 166.633 16.4123C165.848 17.269 165.455 18.456 165.455 19.9732C165.455 21.5083 165.848 22.7132 166.633 23.5878C167.436 24.4446 168.561 24.873 170.007 24.873Z" fill="#0E1117"/>
<path d="M182.648 28.0323V15.9571H180.667V11.9677H184.737V15.0735H185.861C186.308 14.0026 186.995 13.1904 187.923 12.6371C188.851 12.0837 189.913 11.8071 191.109 11.8071H192.448V15.2342H190.922C189.476 15.2342 188.387 15.6537 187.655 16.4926C186.941 17.3315 186.584 18.4471 186.584 19.8394V28.0323H182.648Z" fill="#0E1117"/>
<path d="M201.71 28.3536C199.979 28.3536 198.48 28.0145 197.212 27.3362C195.945 26.6401 194.963 25.6673 194.267 24.4178C193.589 23.1505 193.25 21.66 193.25 19.9465C193.25 18.2329 193.589 16.7603 194.267 15.5287C194.945 14.2792 195.909 13.3243 197.159 12.6638C198.408 11.9856 199.872 11.6464 201.55 11.6464C203.192 11.6464 204.602 11.9677 205.78 12.6103C206.958 13.235 207.869 14.1454 208.511 15.3413C209.154 16.5194 209.475 17.9205 209.475 19.5449V20.9371H197.105C197.248 22.2937 197.712 23.3379 198.498 24.0697C199.301 24.7837 200.363 25.1407 201.684 25.1407C202.665 25.1407 203.46 24.9622 204.067 24.6052C204.691 24.2304 205.129 23.677 205.379 22.9452H209.395C209.02 24.6409 208.154 25.9707 206.798 26.9346C205.459 27.8806 203.763 28.3536 201.71 28.3536ZM197.186 18.2329H205.646C205.486 17.1262 205.057 16.2873 204.361 15.7161C203.665 15.1271 202.728 14.8326 201.55 14.8326C200.39 14.8326 199.435 15.1271 198.685 15.7161C197.935 16.3052 197.436 17.1441 197.186 18.2329Z" fill="#0E1117"/>
</svg>
