<svg xmlns="http://www.w3.org/2000/svg" version="1.2" baseProfile="tiny-ps" viewBox="0 0 900 900">
  <title>SparkCore</title>
  <rect width="900" height="900" fill="#DBD1BC"/>
  <path d="M266.028 450.32C266.028 450.32 266.028 450.082 266.028 449.95C266.028 357.851 345.059 282.87 442.406 282.288V150C267.848 150.556 126 284.907 126 449.95C126 450.082 126 450.188 126 450.32H266.028Z" fill="#0E1117"/>
  <path d="M598.621 450.32C598.621 450.32 598.621 450.082 598.621 449.95C598.621 357.851 677.652 282.87 775 282.288V150C600.413 150.556 458.593 284.907 458.593 449.95C458.593 450.082 458.593 450.188 458.593 450.32H598.621Z" fill="#0E1117"/>
  <path d="M302.379 448.679C302.379 448.679 302.379 448.917 302.379 449.05C302.379 541.149 223.347 616.129 126 616.711V748.999C300.586 748.444 442.406 614.092 442.406 449.05C442.406 448.917 442.406 448.812 442.406 448.679H302.379Z" fill="#0E1117"/>
</svg>