<svg width="30" height="30" viewBox="0 0 30 30" fill="none" xmlns="http://www.w3.org/2000/svg">
  <path fill-rule="evenodd" clip-rule="evenodd" d="M15 0C6.71581 0 0 6.71581 0 15C0 23.2842 6.71581 30 15 30C23.2842 30 30 23.2842 30 15C30 6.71581 23.2842 0 15 0ZM8.76279 14.9581C8.56441 14.7733 8.30202 14.6726 8.0309 14.6774C7.75978 14.6822 7.5011 14.792 7.30936 14.9838C7.11763 15.1755 7.0078 15.4342 7.00301 15.7053C6.99823 15.9764 7.09886 16.2388 7.28372 16.4372L11.4698 20.6233C11.666 20.8192 11.932 20.9293 12.2093 20.9293C12.4866 20.9293 12.7526 20.8192 12.9488 20.6233L22.7163 10.8558C22.9011 10.6574 23.0018 10.395 22.997 10.1239C22.9922 9.8528 22.8824 9.59413 22.6906 9.40239C22.4989 9.21065 22.2402 9.10082 21.9691 9.09603C21.698 9.09125 21.4356 9.19189 21.2372 9.37674L12.2093 18.4046L8.76279 14.9581Z" fill="rgb(219, 209, 188)"/>
</svg>
