<svg width="20" height="14" viewBox="0 0 20 14" fill="none" xmlns="http://www.w3.org/2000/svg">
<path d="M19.7545 3.02083C19.7545 3.02083 19.5601 1.64843 18.9614 1.04582C18.2033 0.252708 17.3557 0.24882 16.967 0.202166C14.1833 -1.11231e-07 10.0039 0 10.0039 0H9.99611C9.99611 0 5.81672 -1.11231e-07 3.03305 0.202166C2.64427 0.24882 1.79672 0.252708 1.0386 1.04582C0.439879 1.64843 0.249377 3.02083 0.249377 3.02083C0.249377 3.02083 0.0472107 4.63427 0.0472107 6.24382V7.75229C0.0472107 9.36184 0.245489 10.9753 0.245489 10.9753C0.245489 10.9753 0.439879 12.3477 1.03471 12.9503C1.79284 13.7434 2.78812 13.7162 3.23133 13.8017C4.82533 13.9533 10 14 10 14C10 14 14.1833 13.9922 16.967 13.7939C17.3557 13.7473 18.2033 13.7434 18.9614 12.9503C19.5601 12.3477 19.7545 10.9753 19.7545 10.9753C19.7545 10.9753 19.9528 9.36573 19.9528 7.75229V6.24382C19.9528 4.63427 19.7545 3.02083 19.7545 3.02083ZM7.94335 9.58345V3.98889L13.3202 6.79589L7.94335 9.58345Z" fill="#667085"/>
</svg>
